<svg width="512" height="512" viewBox="0 0 512 512" xmlns="http://www.w3.org/2000/svg">
  <defs>
    <linearGradient id="gold" x1="0%" y1="0%" x2="100%" y2="100%">
      <stop offset="0%" stop-color="#f5e080"/>
      <stop offset="35%" stop-color="#d4af37"/>
      <stop offset="70%" stop-color="#b8860b"/>
      <stop offset="100%" stop-color="#8b6914"/>
    </linearGradient>
    <linearGradient id="goldShine" x1="30%" y1="0%" x2="70%" y2="100%">
      <stop offset="0%" stop-color="#f0d060" stop-opacity="0.25"/>
      <stop offset="100%" stop-color="#d4af37" stop-opacity="0"/>
    </linearGradient>
    <radialGradient id="glow" cx="50%" cy="42%" r="40%">
      <stop offset="0%" stop-color="#d4af37" stop-opacity="0.15"/>
      <stop offset="100%" stop-color="#d4af37" stop-opacity="0"/>
    </radialGradient>
    <filter id="goldGlow">
      <feDropShadow dx="0" dy="0" stdDeviation="8" flood-color="#d4af37" flood-opacity="0.5"/>
    </filter>
    <filter id="textGlow">
      <feDropShadow dx="0" dy="2" stdDeviation="3" flood-color="#d4af37" flood-opacity="0.35"/>
    </filter>
  </defs>
  <!-- Background -->
  <rect width="512" height="512" rx="80" fill="#0a0804"/>
  <!-- Background glow behind horse -->
  <circle cx="256" cy="220" r="180" fill="url(#glow)"/>
  <!-- Outer decorative ring -->
  <circle cx="256" cy="256" r="238" fill="none" stroke="url(#gold)" stroke-width="1.2" opacity="0.12"/>
  <circle cx="256" cy="256" r="232" fill="none" stroke="url(#gold)" stroke-width="0.6" opacity="0.08" stroke-dasharray="6 3"/>
  <!-- Greek key corner decorations -->
  <g stroke="url(#gold)" stroke-width="1.5" fill="none" opacity="0.12">
    <polyline points="35,35 65,35 65,50 50,50 50,65 35,65 35,35"/>
    <polyline points="477,35 447,35 447,50 462,50 462,65 477,65 477,35"/>
    <polyline points="35,477 65,477 65,462 50,462 50,447 35,447 35,477"/>
    <polyline points="477,477 447,477 447,462 462,462 462,447 477,447 477,477"/>
  </g>
  <!-- Horse Head (Font Awesome, CC BY 4.0) — viewBox 0 0 512 512, centered -->
  <g transform="translate(96, 30) scale(0.63)" filter="url(#goldGlow)">
    <path fill="url(#gold)" d="M509.8 332.5l-69.9-164.3c-14.9-41.2-50.4-71-93-79.2 18-10.6 46.3-35.9 34.2-82.3-1.3-5-7.1-7.9-12-6.1L166.9 76.3C35.9 123.4 0 238.9 0 398.8V480c0 17.7 14.3 32 32 32h236.2c23.8 0 39.3-25 28.6-46.3L256 384v-.7c-45.6-3.5-84.6-30.7-104.3-69.6-1.6-3.1-.9-6.9 1.6-9.3l12.1-12.1c3.9-3.9 10.6-2.7 12.9 2.4 14.8 33.7 48.2 57.4 87.4 57.4 17.2 0 33-5.1 46.8-13.2l46 63.9c6 8.4 15.7 13.3 26 13.3h50.3c8.5 0 16.6-3.4 22.6-9.4l45.3-39.8c8.9-9.1 11.7-22.6 7.1-34.4zM328 224c-13.3 0-24-10.7-24-24s10.7-24 24-24 24 10.7 24 24-10.7 24-24 24z"/>
  </g>
  <!-- Shine highlight on head -->
  <g transform="translate(96, 30) scale(0.63)">
    <path fill="url(#goldShine)" d="M509.8 332.5l-69.9-164.3c-14.9-41.2-50.4-71-93-79.2 18-10.6 46.3-35.9 34.2-82.3-1.3-5-7.1-7.9-12-6.1L166.9 76.3C35.9 123.4 0 238.9 0 398.8V480c0 17.7 14.3 32 32 32h236.2c23.8 0 39.3-25 28.6-46.3L256 384v-.7"/>
  </g>
  <!-- Brand text -->
  <text x="256" y="450" text-anchor="middle" fill="url(#gold)" font-family="'Georgia', 'Times New Roman', serif" font-size="54" font-weight="bold" letter-spacing="18" filter="url(#textGlow)">TROIA</text>
  <!-- Subtitle -->
  <text x="256" y="484" text-anchor="middle" fill="url(#gold)" font-family="'Georgia', serif" font-size="15" letter-spacing="10" opacity="0.4">MEDIA</text>
</svg>
